HIERARCHY
ROOT Hips
{
	OFFSET 0.000000 0.000000 0.000000 
	CHANNELS 6 Xposition Yposition Zposition Zrotation Yrotation Xrotation
	JOINT LeftUpLeg
	{
		OFFSET 1.363060 -1.794630 0.839290 
		CHANNELS 3 Zrotation Yrotation Xrotation
		JOINT LeftLeg
		{
			OFFSET 2.448110 -6.726130 0.000000 
			CHANNELS 3 Zrotation Yrotation Xrotation
			JOINT LeftFoot
			{
				OFFSET 2.562200 -7.039590 0.000000 
				CHANNELS 3 Zrotation Yrotation Xrotation
				JOINT LeftToeBase
				{
					OFFSET 0.157640 -0.433110 2.322550 
					CHANNELS 3 Zrotation Yrotation Xrotation
					End Site
					{
						OFFSET 0.000000 0.000000 0.000000 
					}
				}
			}
		}
	}
	JOINT RightUpLeg
	{
		OFFSET -1.305520 -1.794630 0.839290 
		CHANNELS 3 Zrotation Yrotation Xrotation
		JOINT RightLeg
		{
			OFFSET -2.542530 -6.985550 0.000000 
			CHANNELS 3 Zrotation Yrotation Xrotation
			JOINT RightFoot
			{
				OFFSET -2.568260 -7.056230 0.000000 
				CHANNELS 3 Zrotation Yrotation Xrotation
				JOINT RightToeBase
				{
					OFFSET -0.164730 -0.452590 2.363150 
					CHANNELS 3 Zrotation Yrotation Xrotation
					End Site
					{
						OFFSET 0.000000 0.000000 0.000000 
					}
				}
			}
		}
	}
	JOINT Spine
	{
		OFFSET 0.028270 2.035590 -0.193380 
		CHANNELS 3 Zrotation Yrotation Xrotation
		JOINT Spine1
		{
			OFFSET 0.056720 2.048850 -0.042750 
			CHANNELS 3 Zrotation Yrotation Xrotation
			JOINT Neck1
			{
				OFFSET -0.054170 1.746240 0.172020 
				CHANNELS 3 Zrotation Yrotation Xrotation
				JOINT Head
				{
					OFFSET 0.104070 1.761360 -0.123970 
					CHANNELS 3 Zrotation Yrotation Xrotation
					End Site
					{
						OFFSET 0.000000 0.000000 0.000000 
					}
				}
			}
			JOINT LeftArm
			{
				OFFSET 3.362410 1.200890 -0.311210 
				CHANNELS 3 Zrotation Yrotation Xrotation
				JOINT LeftForeArm
				{
					OFFSET 4.983000 -0.000000 -0.000000 
					CHANNELS 3 Zrotation Yrotation Xrotation
					JOINT LeftHand
					{
						OFFSET 3.483560 -0.000000 -0.000000 
						CHANNELS 3 Zrotation Yrotation Xrotation
						JOINT LeftHandIndex1
						{
							OFFSET 0.715260 -0.000000 -0.000000 
							CHANNELS 3 Zrotation Yrotation Xrotation
							End Site
							{
								OFFSET 0.000000 0.000000 0.000000 
							}
						}
					}
				}
			}
			JOINT RightArm
			{
				OFFSET -3.136600 1.374050 -0.404650 
				CHANNELS 3 Zrotation Yrotation Xrotation
				JOINT RightForeArm
				{
					OFFSET -5.241900 -0.000000 -0.000000 
					CHANNELS 3 Zrotation Yrotation Xrotation
					JOINT RightHand
					{
						OFFSET -3.444170 -0.000000 -0.000000 
						CHANNELS 3 Zrotation Yrotation Xrotation
						JOINT RightHandIndex1
						{
							OFFSET -0.622530 -0.000000 -0.000000 
							CHANNELS 3 Zrotation Yrotation Xrotation
							End Site
							{
								OFFSET 0.000000 0.000000 0.000000 
							}
						}
					}
				}
			}
		}
	}
}
MOTION
Frames: 13
Frame Time: 0.041667
0.687728 16.894207 -2.618934 1.267061 -10.282329 13.302422 -25.105679 -12.178185 -33.888931 4.541979 13.935295 41.768028 -0.013638 6.465895 -17.196412 0.591300 -4.923000 -13.689100 19.687637 21.453446 -36.782370 -5.638065 -14.008394 43.346620 -0.222762 -4.121918 -14.584299 -0.304800 3.549600 -9.812900 1.048349 4.629536 5.006101 1.531719 2.016957 2.413195 7.996919 -12.827277 1.345490 4.470000 -6.352000 0.096000 -12.884026 -37.229705 16.241046 56.723524 -53.689387 -29.043573 -0.820628 0.667065 -18.380901 -7.125000 0.000000 0.000000 47.911624 6.524106 70.601195 -86.854601 57.914337 -51.399159 -0.072181 -1.110038 -40.998381 7.125000 0.000000 0.000000 
0.699408 16.852453 -2.624676 1.371984 -10.089865 13.121009 -25.266723 -12.160175 -34.208896 4.737908 14.158007 42.554695 0.065921 6.106353 -17.342303 0.602900 -4.970500 -13.824500 19.440095 21.434283 -37.177070 -5.854210 -14.262072 44.273335 -0.253897 -4.065433 -14.929820 -0.300400 3.523900 -9.740900 0.974733 4.525529 5.113726 1.510734 1.953367 2.561419 8.347679 -12.782007 1.324502 4.580200 -6.330200 0.128800 -14.236608 -39.777661 14.860227 55.566851 -53.255462 -28.044048 -0.754720 0.720908 -16.279917 -7.125000 0.000000 0.000000 46.426166 5.691479 70.651960 -88.288354 57.814840 -52.755007 -0.056202 -1.079822 -42.142388 7.125000 0.000000 0.000000 
0.711184 16.809142 -2.629543 1.374117 -9.878166 12.896206 -25.307315 -12.142601 -34.456705 4.931804 14.369181 43.315772 0.159122 5.677016 -17.511169 0.575900 -4.859700 -13.508800 19.344027 21.384815 -37.460795 -6.067664 -14.498531 45.168155 -0.290061 -3.983847 -15.293986 -0.276400 3.381600 -9.343100 0.938721 4.435905 5.228482 1.514290 1.898138 2.694459 8.696682 -12.728242 1.345316 4.705100 -6.303100 0.194600 -15.986627 -42.494601 13.624802 54.235722 -52.726795 -26.903298 -0.682891 0.754796 -14.385575 -7.125000 0.000000 0.000000 44.886525 4.846504 70.699703 -89.535568 57.718684 -53.957881 -0.045524 -1.054963 -43.218722 7.125000 0.000000 0.000000 
0.724713 16.766122 -2.636551 1.384234 -9.624760 12.611606 -25.370871 -12.116534 -34.657839 5.130550 14.575964 44.084237 0.247197 5.298875 -17.726534 0.604100 -4.975000 -13.837400 19.273545 21.246136 -37.663390 -6.280681 -14.722939 46.039942 -0.335173 -3.852283 -15.688024 -0.237900 3.139300 -8.666800 0.910906 4.304390 5.321374 1.516902 1.826418 2.738517 9.301808 -12.653720 1.384762 4.447100 -6.263000 0.270300 -18.101505 -45.253704 12.592997 52.808384 -52.121873 -25.692727 -0.613656 0.778990 -12.726229 -7.125000 0.000000 0.000000 43.311755 4.057054 70.825946 -90.567118 57.632408 -54.971907 -0.041623 -1.037015 -44.206477 7.125000 0.000000 0.000000 
0.739994 16.721643 -2.643753 1.404196 -9.398418 12.393658 -25.456217 -12.035152 -34.973861 5.336356 14.792839 44.876370 0.324014 4.964501 -17.909496 0.663100 -5.207900 -14.502500 19.153749 21.139021 -37.965898 -6.494093 -14.946835 46.906486 -0.374978 -3.734689 -16.025554 -0.221900 3.032400 -8.369000 0.864433 4.131317 5.394483 1.507251 1.734587 2.772190 9.652088 -12.536918 1.398292 4.564400 -6.203100 0.316900 -20.632081 -47.770764 11.847609 51.621008 -51.570270 -24.687086 -0.558332 0.811830 -11.393626 -7.125000 0.000000 0.000000 41.720124 3.420729 71.052013 -91.445446 57.560315 -55.837990 -0.034581 -1.015489 -45.115523 7.125000 0.000000 0.000000 
0.756053 16.675119 -2.651637 1.314124 -9.177424 12.199570 -25.403203 -11.988213 -35.304006 5.547871 15.013085 45.678076 0.401068 4.595258 -18.041266 0.664000 -5.211500 -14.512900 19.169209 21.088311 -38.248237 -6.706318 -15.161876 47.759330 -0.394362 -3.748685 -16.299300 -0.237300 3.135200 -8.655300 0.854582 3.951758 5.522963 1.551188 1.634434 2.926238 10.010111 -12.388024 1.300360 4.696600 -6.127000 0.310100 -23.551252 -50.166184 11.318062 50.535029 -51.028949 -23.767394 -0.507803 0.839439 -10.503874 -7.125000 0.000000 0.000000 40.038510 2.951952 71.280277 -92.181578 57.508056 -56.570724 -0.026745 -0.992644 -45.938827 7.125000 0.000000 0.000000 
0.771821 16.628888 -2.657768 1.236456 -8.961178 11.984403 -25.374488 -11.924426 -35.580121 5.757810 15.220891 46.458740 0.494050 4.150989 -18.212301 0.644300 -5.134900 -14.293700 19.178922 21.034907 -38.488160 -6.922647 -15.373600 48.616046 -0.403270 -3.848026 -16.567573 -0.268200 3.331200 -9.202400 0.799460 3.904475 5.673655 1.411667 1.611306 3.092918 10.416277 -12.387177 1.132214 4.829700 -6.127500 0.267100 -26.973869 -52.799146 11.452548 49.512659 -50.463483 -22.894680 -0.451197 0.851605 -10.130861 -7.125000 0.000000 0.000000 38.555185 2.282841 71.240890 -92.747494 57.475252 -57.130578 -0.024140 -0.965667 -46.705245 7.125000 0.000000 0.000000 
0.788658 16.586453 -2.659910 1.303699 -8.775071 11.721057 -25.543628 -11.844871 -35.738979 5.956616 15.401347 47.185620 0.572651 3.779445 -18.367105 0.650700 -5.159900 -14.365300 19.030278 20.901383 -38.706560 -7.142821 -15.582410 49.470907 -0.415238 -3.939224 -16.858576 -0.333600 3.711800 -10.267200 0.677873 3.833173 5.783833 1.182152 1.580076 3.162685 10.808842 -12.389588 1.097028 4.935300 -6.128900 0.281900 -31.243496 -55.045376 12.417141 48.981708 -50.046327 -22.388430 -0.403394 0.853116 -10.329414 -7.125000 0.000000 0.000000 37.232485 1.629518 71.240795 -93.112097 57.460192 -57.495560 -0.021060 -0.944331 -47.418014 7.125000 0.000000 0.000000 
0.806178 16.543238 -2.661759 1.464631 -8.625567 11.451272 -25.803960 -11.800210 -35.862250 6.137910 15.559593 47.843019 0.646089 3.441182 -18.530324 0.649900 -5.156800 -14.356300 18.749037 20.788310 -38.941319 -7.365195 -15.786812 50.320793 -0.444294 -3.922862 -17.191082 -0.352200 3.813100 -10.551500 0.565484 3.651626 5.874923 1.094517 1.479509 3.205559 11.093909 -12.264643 1.185099 4.998900 -6.062100 0.347400 -36.132756 -56.731886 13.843123 48.872215 -49.764739 -22.198521 -0.396744 0.866150 -11.242396 -7.125000 0.000000 0.000000 35.705489 1.317434 71.491751 -93.324111 57.465950 -57.715060 -0.020922 -0.926310 -48.179037 7.125000 0.000000 0.000000 
0.823697 16.500997 -2.665068 1.621043 -8.440502 11.195016 -26.035717 -11.844889 -35.952628 6.301106 15.697652 48.428294 0.712998 3.130471 -18.678336 0.627800 -5.070100 -14.108600 18.474023 20.671803 -39.175305 -7.584593 -15.982130 51.147621 -0.489057 -3.803902 -17.554484 -0.340200 3.747900 -10.368500 0.478662 3.417571 5.933180 1.084552 1.351184 3.178312 11.328155 -12.078299 1.231458 5.061100 -5.968000 0.364600 -41.339447 -57.999031 15.740003 48.966460 -49.517466 -22.154610 -0.430190 0.879708 -12.683527 -7.125000 0.000000 0.000000 34.032177 1.210589 71.858532 -93.457559 57.487455 -57.853951 -0.014861 -0.904259 -49.020809 7.125000 0.000000 0.000000 
0.839562 16.463915 -2.667209 1.716947 -8.255783 10.958779 -26.211902 -11.865818 -36.021161 6.448147 15.820223 48.955100 0.735563 3.054282 -18.771853 0.691600 -5.316500 -14.813500 18.272169 20.598306 -39.361291 -7.793215 -16.160148 51.923862 -0.535645 -3.660588 -17.895404 -0.304800 3.549500 -9.812600 0.414465 3.183250 6.002699 1.121840 1.222370 3.193895 11.643904 -11.877343 1.257664 5.177500 -5.865600 0.389500 -46.799227 -59.000719 17.904783 49.233724 -49.285423 -22.221657 -0.480471 0.862630 -14.448148 -7.125000 0.000000 0.000000 32.345842 1.264255 72.139648 -93.461959 57.527116 -57.862562 -0.003786 -0.878480 -49.982648 7.125000 0.000000 0.000000 
0.854453 16.430628 -2.668183 1.833884 -8.048880 10.740994 -26.389526 -11.927990 -36.076557 6.579969 15.926987 49.422973 0.758035 2.947079 -18.816837 0.753600 -5.544700 -15.468900 18.045853 20.507263 -39.531650 -7.988793 -16.323467 52.643463 -0.582535 -3.506586 -18.218714 -0.273500 3.364100 -9.294200 0.329634 2.951065 6.125057 1.107010 1.096056 3.368887 11.902069 -11.746650 1.330486 5.229300 -5.789400 0.474400 -52.337703 -59.985510 20.228391 49.631864 -49.058802 -22.365936 -0.509583 0.829052 -16.714692 -7.125000 0.000000 0.000000 30.706542 1.525316 72.251861 -93.292347 57.584287 -57.701406 0.008881 -0.852109 -50.985717 7.125000 0.000000 0.000000 
0.869150 16.399386 -2.670227 2.096572 -7.836205 10.549425 -26.735914 -12.012600 -36.134173 6.698756 16.017771 49.841334 0.800087 2.718835 -18.861865 0.767400 -5.593800 -15.610400 17.638834 20.381138 -39.767424 -8.168408 -16.477319 53.302972 -0.608503 -3.479362 -18.477601 -0.272900 3.360400 -9.283800 0.184860 2.741406 6.246432 0.964633 0.993568 3.608787 12.113464 -11.660149 1.453346 5.231500 -5.728100 0.609600 -57.984551 -61.104525 23.005808 49.774626 -48.689688 -22.302811 -0.520639 0.786160 -19.802220 -7.125000 0.000000 0.000000 29.219659 1.836659 72.176283 -92.936635 57.651284 -57.357707 0.020313 -0.825197 -51.978721 7.125000 0.000000 0.000000 
